<svg width="497" height="234" viewBox="0 0 497 234" fill="none" xmlns="http://www.w3.org/2000/svg">
<rect y="33.7367" width="483.635" height="200" rx="5" transform="rotate(-4 0 33.7367)" fill="#1E4681"/>
<path d="M37.9066 76.734C36.7781 76.8129 35.7294 76.6905 34.7605 76.3666C33.7915 76.0428 33.0006 75.523 32.3876 74.8072C31.7828 74.0908 31.4537 73.1756 31.4002 72.0617L31.4195 71.987L33.7088 71.8269C33.7735 72.7524 34.1693 73.5119 34.8961 74.1056C35.6223 74.6911 36.5983 74.941 37.8241 74.8553C39.0094 74.7724 39.9666 74.4036 40.6959 73.749C41.4245 73.0862 41.7505 72.2068 41.6739 71.1108C41.6058 70.1366 41.221 69.4171 40.5195 68.9522C39.8175 68.4792 38.817 68.2881 37.5181 68.3789L35.521 68.5186L35.3882 66.6189L37.3853 66.4793C38.6355 66.3919 39.5425 66.0633 40.1063 65.4936C40.6702 64.9239 40.9203 64.1844 40.8567 63.2752C40.7909 62.3335 40.4006 61.5939 39.6859 61.0566C38.9794 60.5186 37.9645 60.2959 36.6412 60.3884C35.7888 60.448 35.0791 60.6241 34.5122 60.9166C33.9447 61.201 33.4914 61.5427 33.1522 61.9417L32.864 64.4704L31.1835 64.5879L30.9638 61.4462C31.4218 60.7615 32.1481 60.1234 33.1427 59.5317C34.1369 58.932 35.3361 58.583 36.7406 58.4847C38.624 58.353 40.1516 58.6745 41.3234 59.4492C42.4946 60.2157 43.1311 61.3255 43.2327 62.7787C43.3014 63.761 43.1047 64.6231 42.6426 65.3652C42.18 66.0991 41.5158 66.6921 40.6501 67.1443C41.6887 67.4143 42.5006 67.8837 43.0858 68.5525C43.6791 69.2207 44.0115 70.0663 44.083 71.0892C44.1585 72.1689 43.9475 73.1178 43.45 73.9357C42.96 74.745 42.2383 75.391 41.285 75.8737C40.3316 76.3564 39.2055 76.6432 37.9066 76.734ZM46.5844 80.9607L46.4762 79.4142L48.3155 78.943L47.3039 64.4764L45.2952 64.2742L45.187 62.7277L49.2299 62.445L49.5615 64.037C50.3763 62.7401 51.5955 62.0348 53.2192 61.9213C54.307 61.8452 55.2573 62.0765 56.0699 62.6152C56.882 63.1458 57.5282 63.9286 58.0085 64.9637C58.4882 65.9907 58.7777 67.2145 58.8771 68.6352L58.895 68.891C58.9835 70.1574 58.854 71.28 58.5064 72.2588C58.1669 73.237 57.6343 74.0207 56.9087 74.6099C56.1825 75.1909 55.2836 75.5189 54.212 75.5938C52.6127 75.7057 51.341 75.2521 50.3968 74.2331L50.7144 78.7752L52.8328 78.9697L52.9409 80.5163L46.5844 80.9607ZM53.338 73.7705C54.4746 73.691 55.3061 73.2168 55.8327 72.3479C56.3593 71.4789 56.5764 70.3828 56.4839 69.0596L56.466 68.8038C56.361 67.302 55.9827 66.0925 55.3312 65.1754C54.6797 64.2583 53.7776 63.8401 52.6248 63.9207C51.9428 63.9684 51.3691 64.1635 50.9036 64.5061C50.4381 64.8486 50.0739 65.2983 49.811 65.8551L50.2597 72.2726C50.5981 72.7955 51.0173 73.1904 51.5173 73.4572C52.0248 73.7154 52.6317 73.8198 53.338 73.7705ZM61.9754 74.794L61.8681 73.2596L63.8291 72.7799L63.1709 63.3668L61.1622 63.1647L61.054 61.6181L67.4106 61.1736L67.5187 62.7202L65.5577 63.1999L66.0779 70.6403L66.1527 70.6595L71.3073 60.9012L75.6911 60.5946L75.7993 62.1411L73.8382 62.6209L74.4964 72.0339L76.5052 72.2361L76.6125 73.7704L70.2438 74.2158L70.1365 72.6815L72.0975 72.2017L71.5764 64.7492L71.5016 64.7299L66.347 74.4883L61.9754 74.794ZM81.7635 73.4103L81.6562 71.8759L83.6172 71.3962L82.9573 61.9587L80.1809 62.1529L80.1421 64.2236L78.0964 64.3667L77.8222 60.4456L90.2917 59.5736L90.5659 63.4947L88.5079 63.6386L88.1814 61.5934L85.3562 61.791L86.0162 71.2284L88.0249 71.4306L88.1322 72.9649L81.7635 73.4103ZM98.1842 72.519C96.9664 72.6041 95.8877 72.4022 94.948 71.9132C94.0077 71.416 93.2553 70.6896 92.6909 69.7338C92.1345 68.7774 91.8109 67.6498 91.7201 66.3509L91.6826 65.8151C91.5952 64.5649 91.7729 63.4307 92.2156 62.4127C92.6659 61.3859 93.2974 60.5586 94.1101 59.9307C94.9303 59.2941 95.8478 58.9404 96.8626 58.8694C98.6324 58.7457 100.009 59.1878 100.994 60.1958C101.986 61.2033 102.544 62.6 102.669 64.386L102.774 65.8838L94.2256 66.4816L94.1933 66.545C94.3062 67.8098 94.6998 68.8305 95.3741 69.6073C96.0479 70.376 96.9408 70.7215 98.053 70.6437C98.8649 70.5869 99.5673 70.4236 100.16 70.1537C100.761 69.8751 101.27 69.5173 101.688 69.0801L102.735 70.5733C102.296 71.0608 101.698 71.4901 100.94 71.8612C100.191 72.2237 99.272 72.4429 98.1842 72.519ZM94.1675 64.6012L100.244 64.1763L100.222 63.8597C100.156 62.9179 99.8492 62.1481 99.3016 61.5501C98.754 60.952 97.985 60.6876 96.9946 60.7569C96.1909 60.8131 95.5287 61.202 95.0081 61.9237C94.487 62.6373 94.1972 63.51 94.1389 64.542L94.1675 64.6012ZM105.01 71.7847L104.903 69.7364L105.402 69.6893C106.262 69.6291 106.83 69.1693 107.104 68.3098C107.387 67.4498 107.458 66.0253 107.319 64.0364L107.058 60.2979L105.049 60.0958L104.941 58.5493L118.178 57.6237L118.286 59.1702L116.325 59.6499L116.983 69.063L118.992 69.2652L119.099 70.7995L112.73 71.2448L112.623 69.7105L114.584 69.2307L113.927 59.8299L109.458 60.1424L109.718 63.8686C109.9 66.4665 109.688 68.3984 109.083 69.6643C108.487 70.9298 107.356 71.6206 105.692 71.737L105.01 71.7847ZM128.419 61.4596C129.978 61.3506 131.219 61.6636 132.143 62.3984C133.067 63.1251 133.573 64.1217 133.662 65.3881C133.751 66.6627 133.386 67.7406 132.566 68.6218C131.755 69.5025 130.574 69.9971 129.024 70.1055L121.376 70.6403L121.269 69.1059L123.23 68.6262L122.572 59.2131L120.563 59.0109L120.455 57.4644L126.824 57.0191L126.932 58.5656L124.971 59.0454L125.155 61.6878L128.419 61.4596ZM128.892 68.2302C129.761 68.1695 130.382 67.8976 130.757 67.4146C131.138 66.9229 131.305 66.332 131.257 65.642C131.21 64.9763 130.963 64.4103 130.514 63.9441C130.065 63.4778 129.411 63.2748 128.55 63.3349L125.287 63.5631L125.629 68.4584L128.892 68.2302ZM142.47 73.0565L141.837 67.325L142.872 67.2527C143.282 66.7019 143.623 66.1519 143.895 65.6026C144.166 65.0533 144.365 64.4031 144.492 63.6518C144.627 62.8919 144.694 61.9246 144.693 60.7499L144.6 57.6605L142.665 57.4654L142.557 55.9189L155.136 55.0393L155.244 56.5858L153.283 57.0656L153.941 66.4786L155.695 66.356L155.853 72.1207L153.698 72.2714L153.427 68.3991L144.355 69.0334L144.626 72.9058L142.47 73.0565ZM145.636 67.0594L151.542 66.6464L150.901 57.4769L147.004 57.7494L147.092 60.5822C147.105 62.0497 146.981 63.3106 146.72 64.3649C146.468 65.4186 146.106 66.3168 145.636 67.0594ZM157.884 68.0874L157.777 66.0391L158.276 65.992C159.136 65.9318 159.704 65.472 159.978 64.6125C160.26 63.7525 160.332 62.328 160.193 60.3391L159.932 56.6007L157.923 56.3985L157.815 54.852L171.052 53.9264L171.16 55.4729L169.199 55.9526L169.857 65.3657L171.866 65.5679L171.973 67.1022L165.604 67.5475L165.497 66.0132L167.458 65.5334L166.801 56.1326L162.331 56.4451L162.592 60.1713C162.774 62.7692 162.562 64.7011 161.957 65.967C161.36 67.2325 160.23 67.9233 158.566 68.0397L157.884 68.0874ZM173.86 66.9702L173.753 65.4359L175.464 65.0592L177.46 61.2242C176.603 60.9823 175.924 60.5525 175.424 59.9348C174.932 59.3166 174.657 58.5813 174.597 57.7288C174.514 56.5436 174.897 55.546 175.746 54.7361C176.594 53.9181 177.802 53.4543 179.369 53.3448L186.919 52.8168L187.027 54.3634L185.066 54.8431L185.724 64.2562L187.733 64.4583L187.84 65.9927L181.471 66.438L181.364 64.9037L183.325 64.4239L183.098 61.1848L179.847 61.4121L177.087 66.7446L173.86 66.9702ZM179.557 59.5357L182.966 59.2973L182.665 54.9865L179.499 55.2079C178.63 55.2686 177.988 55.5338 177.572 56.0034C177.156 56.4649 176.968 56.992 177.01 57.5846C177.051 58.1691 177.284 58.6545 177.711 59.0407C178.146 59.4263 178.761 59.5913 179.557 59.5357ZM196.315 65.4L196.208 63.8657L198.169 63.3859L197.511 53.9729L195.502 53.7707L195.394 52.2242L200.472 51.8691L205.46 61.6035L205.533 61.5983L209.13 51.2637L214.123 50.9145L214.231 52.4611L212.27 52.9408L212.928 62.3539L214.937 62.556L215.044 64.0904L208.675 64.5357L208.568 63.0014L210.529 62.5216L210.021 55.2518L209.946 55.2325L206.544 64.6847L204.888 64.8005L200.117 55.724L200.046 55.7535L200.568 63.2182L202.577 63.4203L202.684 64.9547L196.315 65.4ZM223.05 63.7875C221.832 63.8727 220.754 63.6707 219.814 63.1817C218.874 62.6845 218.121 61.9581 217.557 61.0023C217.001 60.0459 216.677 58.9183 216.586 57.6194L216.549 57.0836C216.461 55.8334 216.639 54.6992 217.082 53.6812C217.532 52.6544 218.163 51.8271 218.976 51.1992C219.796 50.5627 220.714 50.2089 221.729 50.1379C223.498 50.0142 224.875 50.4563 225.859 51.4643C226.852 52.4718 227.41 53.8685 227.535 55.6545L227.64 57.1523L219.092 57.7501L219.059 57.8135C219.172 59.0783 219.566 60.099 220.24 60.8758C220.914 61.6445 221.807 61.99 222.919 61.9122C223.731 61.8554 224.433 61.6921 225.026 61.4222C225.627 61.1436 226.136 60.7858 226.554 60.3487L227.601 61.8418C227.162 62.3293 226.564 62.7587 225.806 63.1298C225.057 63.4922 224.138 63.7114 223.05 63.7875ZM219.033 55.8697L225.11 55.4448L225.088 55.1282C225.022 54.1865 224.715 53.4166 224.168 52.8186C223.62 52.2206 222.851 51.9562 221.861 52.0254C221.057 52.0816 220.395 52.4706 219.874 53.1922C219.353 53.9058 219.063 54.7785 219.005 55.8105L219.033 55.8697ZM230.217 63.0294L230.11 61.495L232.071 61.0153L231.412 51.6022L229.404 51.4001L229.296 49.8535L235.664 49.4082L235.772 50.9547L233.811 51.4345L234.078 55.246L239.935 54.8364L239.669 51.0249L237.66 50.8227L237.552 49.2762L243.933 48.83L244.041 50.3765L242.08 50.8563L242.738 60.2693L244.747 60.4715L244.854 62.0059L238.473 62.4521L238.366 60.9177L240.327 60.438L240.066 56.7117L234.209 57.1213L234.47 60.8475L236.478 61.0497L236.586 62.584L230.217 63.0294ZM246.827 61.8679L246.719 60.3336L248.431 59.9569L250.426 56.1219C249.569 55.88 248.891 55.4502 248.391 54.8325C247.899 54.2143 247.623 53.4789 247.563 52.6265C247.48 51.4413 247.863 50.4437 248.712 49.6338C249.561 48.8158 250.768 48.352 252.335 48.2425L259.885 47.7145L259.993 49.261L258.032 49.7408L258.69 59.1539L260.699 59.356L260.806 60.8904L254.438 61.3357L254.33 59.8014L256.291 59.3216L256.065 56.0824L252.813 56.3098L250.054 61.6423L246.827 61.8679ZM252.523 54.4334L255.933 54.195L255.631 49.8842L252.465 50.1056C251.597 50.1663 250.954 50.4315 250.539 50.9011C250.122 51.3626 249.935 51.8897 249.976 52.4823C250.017 53.0668 250.251 53.5522 250.677 53.9384C251.112 54.324 251.728 54.489 252.523 54.4334ZM34.2271 108.812L34.1198 107.278L36.0808 106.798L35.4226 97.3853L33.4139 97.1831L33.3057 95.6366L39.6745 95.1913L39.7826 96.7378L37.8215 97.2176L38.0881 101.029L43.9453 100.619L43.6788 96.808L41.6701 96.6058L41.5619 95.0593L47.9428 94.6131L48.051 96.1596L46.0899 96.6394L46.7481 106.052L48.7569 106.255L48.8642 107.789L42.4833 108.235L42.376 106.701L44.337 106.221L44.0765 102.495L38.2192 102.904L38.4798 106.631L40.4885 106.833L40.5958 108.367L34.2271 108.812ZM56.9678 107.479C55.7501 107.564 54.6713 107.362 53.7316 106.873C52.7913 106.376 52.0389 105.65 51.4745 104.694C50.9181 103.738 50.5945 102.61 50.5037 101.311L50.4662 100.775C50.3788 99.5251 50.5565 98.391 50.9992 97.3729C51.4496 96.3462 52.081 95.5189 52.8937 94.891C53.7139 94.2544 54.6314 93.9007 55.6462 93.8297C57.416 93.7059 58.793 94.1481 59.7771 95.1561C60.7694 96.1636 61.328 97.5603 61.4529 99.3463L61.5576 100.844L53.0092 101.442L52.9769 101.505C53.0898 102.77 53.4834 103.791 54.1577 104.568C54.8315 105.336 55.7245 105.682 56.8367 105.604C57.6485 105.547 58.3509 105.384 58.9438 105.114C59.5444 104.835 60.0537 104.478 60.4718 104.04L61.5184 105.534C61.0794 106.021 60.4812 106.45 59.724 106.822C58.9744 107.184 58.0556 107.403 56.9678 107.479ZM52.9511 99.5614L59.0276 99.1365L59.0054 98.8199C58.9396 97.8782 58.6328 97.1083 58.0852 96.5103C57.5376 95.9123 56.7686 95.6479 55.7782 95.7172C54.9745 95.7734 54.3124 96.1623 53.7918 96.884C53.2706 97.5975 52.9808 98.4703 52.9225 99.5023L52.9511 99.5614ZM70.3449 106.287L70.2376 104.753L72.1987 104.273L71.5405 94.8597L69.5317 94.6575L69.4236 93.111L84.0607 92.0875L84.1688 93.634L82.2078 94.1138L82.866 103.527L84.8748 103.729L84.982 105.263L78.6133 105.709L78.506 104.174L80.4671 103.695L79.8097 94.2937L73.9403 94.7041L74.5976 104.105L76.6064 104.307L76.7137 105.842L70.3449 106.287ZM93.0369 104.957C91.8192 105.042 90.748 104.832 89.8234 104.325C88.9063 103.81 88.1731 103.066 87.6238 102.093C87.0738 101.112 86.7534 99.9714 86.6626 98.6725L86.6439 98.4046C86.5531 97.1057 86.7119 95.9362 87.1205 94.896C87.5285 93.8478 88.1508 93.0048 88.9872 92.3671C89.8318 91.7288 90.8548 91.3677 92.0563 91.2837C93.2741 91.1985 94.3415 91.4135 95.2585 91.9285C96.1837 92.4431 96.921 93.1869 97.4704 94.1601C98.0197 95.1332 98.3401 96.2733 98.4315 97.5804L98.4502 97.8483C98.5416 99.1553 98.3833 100.333 97.9753 101.381C97.5667 102.421 96.9439 103.256 96.1069 103.886C95.2699 104.515 94.2466 104.872 93.0369 104.957ZM92.9058 103.082C94.0424 103.002 94.8752 102.487 95.4042 101.537C95.9332 100.586 96.149 99.4123 96.0513 98.016L96.0326 97.7481C95.9679 96.8226 95.7763 96.008 95.4579 95.3042C95.147 94.5917 94.7173 94.0467 94.1688 93.669C93.6197 93.2831 92.9595 93.1172 92.1883 93.1711C91.4252 93.2245 90.7986 93.4804 90.3086 93.9389C89.818 94.3893 89.4683 94.9888 89.2596 95.7376C89.0504 96.4783 88.9781 97.3114 89.0428 98.2369L89.0615 98.5048C89.1592 99.9011 89.532 101.033 90.1801 101.902C90.8363 102.77 91.7449 103.163 92.9058 103.082ZM103.869 103.943L103.762 102.408L105.723 101.929L105.063 92.4911L102.286 92.6853L102.248 94.756L100.202 94.8991L99.9277 90.978L112.397 90.106L112.671 94.0271L110.613 94.171L110.287 92.1258L107.462 92.3234L108.122 101.761L110.13 101.963L110.238 103.497L103.869 103.943ZM115.232 108.239L115.123 106.692L116.963 106.221L115.951 91.7542L113.942 91.5521L113.834 90.0055L117.877 89.7228L118.209 91.3149C119.023 90.0179 120.243 89.3127 121.866 89.1991C122.954 89.1231 123.904 89.3544 124.717 89.8931C125.529 90.4237 126.175 91.2065 126.656 92.2416C127.135 93.2686 127.425 94.4924 127.524 95.9131L127.542 96.1688C127.631 97.4353 127.501 98.5579 127.154 99.5367C126.814 100.515 126.282 101.299 125.556 101.888C124.83 102.469 123.931 102.797 122.859 102.872C121.26 102.984 119.988 102.53 119.044 101.511L119.362 106.053L121.48 106.248L121.588 107.794L115.232 108.239ZM121.985 101.048C123.122 100.969 123.953 100.495 124.48 99.6257C125.007 98.7568 125.224 97.6607 125.131 96.3374L125.113 96.0817C125.008 94.5798 124.63 93.3704 123.978 92.4533C123.327 91.5362 122.425 91.118 121.272 91.1986C120.59 91.2463 120.016 91.4414 119.551 91.7839C119.085 92.1265 118.721 92.5762 118.458 93.133L118.907 99.5504C119.245 100.073 119.664 100.468 120.164 100.735C120.672 100.993 121.279 101.098 121.985 101.048ZM136.851 101.893C135.633 101.978 134.554 101.777 133.615 101.287C132.674 100.79 131.922 100.064 131.358 99.1081C130.801 98.1517 130.478 97.0241 130.387 95.7252L130.349 95.1894C130.262 93.9392 130.44 92.805 130.882 91.787C131.333 90.7602 131.964 89.9329 132.777 89.305C133.597 88.6685 134.515 88.3147 135.529 88.2437C137.299 88.12 138.676 88.5621 139.66 89.5701C140.652 90.5776 141.211 91.9743 141.336 93.7603L141.441 95.2581L132.892 95.8559L132.86 95.9193C132.973 97.1841 133.366 98.2048 134.041 98.9816C134.715 99.7503 135.608 100.096 136.72 100.018C137.532 99.9612 138.234 99.7979 138.827 99.528C139.427 99.2494 139.937 98.8916 140.355 98.4544L141.402 99.9476C140.962 100.435 140.364 100.864 139.607 101.236C138.857 101.598 137.939 101.817 136.851 101.893ZM132.834 93.9755L138.911 93.5506L138.888 93.234C138.823 92.2922 138.516 91.5224 137.968 90.9244C137.421 90.3263 136.652 90.062 135.661 90.1312C134.858 90.1874 134.195 90.5763 133.675 91.298C133.154 92.0116 132.864 92.8843 132.806 93.9163L132.834 93.9755ZM150.039 100.971C148.829 101.056 147.763 100.857 146.84 100.375C145.925 99.8842 145.194 99.1725 144.647 98.24C144.1 97.2993 143.783 96.1998 143.695 94.9414L143.575 93.2366C143.394 90.6388 143.793 88.5306 144.773 86.9121C145.753 85.2936 147.147 84.2375 148.957 83.7439C149.966 83.4856 150.69 83.2107 151.126 82.9192C151.571 82.627 151.772 82.1846 151.731 81.592L153.582 81.4626L153.611 81.5339C153.694 82.4826 153.602 83.2151 153.336 83.7313C153.071 84.2475 152.621 84.646 151.988 84.9269C151.364 85.2071 150.55 85.468 149.547 85.7094C148.448 85.9739 147.528 86.4706 146.788 87.1995C146.055 87.9197 145.644 88.9314 145.556 90.2347L145.609 90.2922C146.052 89.7472 146.624 89.2872 147.323 88.9119C148.031 88.5361 148.795 88.3195 149.615 88.2622C150.727 88.1844 151.707 88.3728 152.555 88.8275C153.402 89.2822 154.077 89.9448 154.578 90.8152C155.087 91.677 155.382 92.6884 155.463 93.8493L155.482 94.1172C155.57 95.3755 155.409 96.5085 154.998 97.5162C154.587 98.5157 153.958 99.3225 153.111 99.9364C152.273 100.542 151.248 100.887 150.039 100.971ZM149.908 99.0958C151.052 99.0157 151.891 98.5247 152.423 97.6228C152.956 96.7208 153.176 95.6082 153.083 94.2849L153.065 94.017C152.983 92.848 152.614 91.8948 151.959 91.1575C151.312 90.4196 150.412 90.0909 149.259 90.1715C148.115 90.2516 147.277 90.7017 146.747 91.5219C146.217 92.3421 145.993 93.3368 146.075 94.5058L146.094 94.7737C146.186 96.097 146.555 97.1684 147.199 97.9881C147.844 98.8077 148.747 99.177 149.908 99.0958ZM157.997 100.158L157.89 98.6233L159.851 98.1435L159.193 88.7305L157.184 88.5283L157.076 86.9818L163.432 86.5373L163.54 88.0838L161.579 88.5636L162.1 96.0039L162.174 96.0231L167.329 86.2648L171.713 85.9583L171.821 87.5048L169.86 87.9845L170.518 97.3976L172.527 97.5998L172.634 99.1341L166.265 99.5794L166.158 98.0451L168.119 97.5653L167.598 90.1128L167.523 90.0936L162.369 99.8519L157.997 100.158ZM177.785 98.7739L177.678 97.2396L179.639 96.7598L178.979 87.3224L176.203 87.5165L176.164 89.5873L174.118 89.7303L173.844 85.8092L186.313 84.9373L186.588 88.8584L184.53 89.0023L184.203 86.9571L181.378 87.1546L182.038 96.5921L184.047 96.7942L184.154 98.3286L177.785 98.7739ZM194.206 97.8826C192.988 97.9678 191.909 97.7658 190.97 97.2768C190.029 96.7797 189.277 96.0532 188.713 95.0974C188.156 94.1411 187.833 93.0134 187.742 91.7145L187.704 91.1787C187.617 89.9285 187.795 88.7944 188.237 87.7763C188.688 86.7496 189.319 85.9222 190.132 85.2944C190.952 84.6578 191.87 84.304 192.884 84.2331C194.654 84.1093 196.031 84.5515 197.015 85.5595C198.008 86.5669 198.566 87.9637 198.691 89.7497L198.796 91.2475L190.247 91.8452L190.215 91.9087C190.328 93.1734 190.722 94.1942 191.396 94.971C192.07 95.7396 192.963 96.0851 194.075 96.0073C194.887 95.9506 195.589 95.7872 196.182 95.5173C196.782 95.2388 197.292 94.8809 197.71 94.4438L198.757 95.9369C198.318 96.4245 197.719 96.8538 196.962 97.2249C196.212 97.5873 195.294 97.8066 194.206 97.8826ZM190.189 89.9648L196.266 89.5399L196.244 89.2233C196.178 88.2816 195.871 87.5117 195.323 86.9137C194.776 86.3157 194.007 86.0513 193.016 86.1206C192.213 86.1768 191.55 86.5657 191.03 87.2874C190.509 88.0009 190.219 88.8737 190.161 89.9056L190.189 89.9648ZM201.032 97.1484L200.925 95.1L201.424 95.0529C202.284 94.9927 202.852 94.5329 203.126 93.6735C203.408 92.8135 203.48 91.389 203.341 89.4L203.08 85.6616L201.071 85.4594L200.963 83.9129L214.199 82.9873L214.308 84.5338L212.347 85.0136L213.005 94.4266L215.014 94.6288L215.121 96.1631L208.752 96.6085L208.645 95.0741L210.606 94.5944L209.948 85.1935L205.479 85.506L205.74 89.2323C205.922 91.8301 205.71 93.762 205.105 95.028C204.508 96.2934 203.378 96.9843 201.714 97.1007L201.032 97.1484ZM224.441 86.8233C225.999 86.7143 227.241 87.0272 228.165 87.762C229.089 88.4888 229.595 89.4854 229.684 90.7518C229.773 92.0263 229.408 93.1042 228.588 93.9855C227.777 94.8662 226.596 95.3607 225.045 95.4692L217.398 96.0039L217.291 94.4696L219.252 93.9898L218.593 84.5768L216.585 84.3746L216.477 82.8281L222.845 82.3827L222.953 83.9292L220.992 84.409L221.177 87.0515L224.441 86.8233ZM224.914 93.5939C225.783 93.5331 226.404 93.2612 226.778 92.7782C227.16 92.2865 227.327 91.6957 227.278 91.0056C227.232 90.3399 226.984 89.774 226.536 89.3077C226.087 88.8414 225.432 88.6384 224.572 88.6986L221.308 88.9268L221.651 93.8221L224.914 93.5939ZM238.367 94.5376L238.26 93.0033L240.221 92.5235L239.563 83.1104L237.554 82.9083L237.446 81.3618L242.524 81.0067L247.512 90.741L247.585 90.7359L251.182 80.4012L256.175 80.0521L256.283 81.5986L254.322 82.0784L254.98 91.4915L256.989 91.6936L257.096 93.228L250.727 93.6733L250.62 92.139L252.581 91.6592L252.073 84.3894L251.998 84.3701L248.596 93.8223L246.94 93.9381L242.169 84.8616L242.098 84.8911L242.62 92.3557L244.629 92.5579L244.736 94.0922L238.367 94.5376ZM265.053 92.9285C263.836 93.0136 262.765 92.803 261.84 92.2966C260.923 91.7815 260.19 91.0374 259.64 90.0643C259.09 89.083 258.77 87.9429 258.679 86.644L258.66 86.3761C258.57 85.0772 258.728 83.9076 259.137 82.8675C259.545 81.8192 260.167 80.9762 261.004 80.3385C261.848 79.7002 262.871 79.3391 264.073 79.2551C265.291 79.1699 266.358 79.3849 267.275 79.9C268.2 80.4145 268.937 81.1583 269.487 82.1315C270.036 83.1047 270.357 84.2448 270.448 85.5518L270.467 85.8197C270.558 87.1267 270.4 88.3044 269.992 89.3526C269.583 90.3928 268.96 91.2277 268.123 91.8572C267.286 92.4868 266.263 92.8439 265.053 92.9285ZM264.922 91.0532C266.059 90.9737 266.892 90.4586 267.421 89.508C267.95 88.5573 268.165 87.3838 268.068 85.9874L268.049 85.7195C267.984 84.7941 267.793 83.9794 267.474 83.2757C267.163 82.5632 266.734 82.0181 266.185 81.6404C265.636 81.2546 264.976 81.0886 264.205 81.1426C263.442 81.1959 262.815 81.4519 262.325 81.9103C261.834 82.3607 261.485 82.9603 261.276 83.7091C261.067 84.4498 260.995 85.2828 261.059 86.2083L261.078 86.4762C261.176 87.8725 261.549 89.0049 262.197 89.8733C262.853 90.7411 263.761 91.1344 264.922 91.0532ZM279.544 91.9152C278.327 92.0003 277.248 91.7984 276.308 91.3094C275.368 90.8122 274.616 90.0858 274.051 89.13C273.495 88.1736 273.171 87.046 273.08 85.7471L273.043 85.2113C272.955 83.9611 273.133 82.8269 273.576 81.8089C274.026 80.7821 274.658 79.9548 275.47 79.3269C276.291 78.6903 277.208 78.3366 278.223 78.2656C279.993 78.1419 281.37 78.584 282.354 79.592C283.346 80.5995 283.905 81.9962 284.03 83.7822L284.134 85.28L275.586 85.8778L275.554 85.9412C275.666 87.206 276.06 88.2267 276.734 89.0035C277.408 89.7722 278.301 90.1177 279.413 90.0399C280.225 89.9831 280.927 89.8198 281.52 89.5499C282.121 89.2713 282.63 88.9135 283.048 88.4763L284.095 89.9695C283.656 90.457 283.058 90.8863 282.301 91.2574C281.551 91.6199 280.632 91.8391 279.544 91.9152ZM275.528 83.9974L281.604 83.5725L281.582 83.2559C281.516 82.3141 281.209 81.5443 280.662 80.9463C280.114 80.3482 279.345 80.0838 278.355 80.1531C277.551 80.2093 276.889 80.5982 276.368 81.3199C275.847 82.0335 275.557 82.9062 275.499 83.9382L275.528 83.9974ZM286.711 91.1571L286.604 89.6227L288.565 89.143L287.907 79.7299L285.898 79.5277L285.79 77.9812L292.146 77.5367L292.254 79.0833L290.293 79.563L290.814 87.0033L290.888 87.0226L296.043 77.2642L300.427 76.9577L300.535 78.5042L298.574 78.984L299.232 88.397L301.241 88.5992L301.348 90.1335L294.98 90.5789L294.872 89.0445L296.833 88.5648L296.312 81.1123L296.237 81.093L291.083 90.8514L286.711 91.1571ZM293.02 75.1507C291.842 75.233 290.895 74.9811 290.177 74.395C289.458 73.8008 289.063 72.9963 288.992 71.9815L289.012 71.9067L290.838 71.779C290.879 72.3635 291.067 72.8276 291.401 73.1714C291.743 73.5146 292.247 73.6629 292.912 73.6163C293.562 73.5709 294.032 73.3545 294.323 72.967C294.614 72.5796 294.739 72.0936 294.698 71.5091L296.537 71.3805L296.567 71.4518C296.629 72.4672 296.346 73.3191 295.717 74.0075C295.096 74.6873 294.197 75.0684 293.02 75.1507ZM309.921 89.5341L309.814 87.9997L311.775 87.52L311.117 78.1069L309.108 77.9047L309 76.3582L323.637 75.3347L323.745 76.8812L321.784 77.361L322.442 86.774L324.451 86.9762L324.558 88.5105L318.189 88.9559L318.082 87.4215L320.043 86.9418L319.386 77.5409L313.516 77.9513L314.174 87.3522L316.182 87.5544L316.29 89.0887L309.921 89.5341ZM326.629 93.4562L326.521 91.9097L328.361 91.4385L327.349 76.9718L325.34 76.7697L325.232 75.2232L329.275 74.9405L329.606 76.5325C330.421 75.2355 331.641 74.5303 333.264 74.4168C334.352 74.3407 335.302 74.572 336.115 75.1107C336.927 75.6413 337.573 76.4241 338.054 77.4592C338.533 78.4862 338.823 79.71 338.922 81.1307L338.94 81.3864C339.029 82.6529 338.899 83.7755 338.551 84.7543C338.212 85.7325 337.679 86.5162 336.954 87.1053C336.228 87.6864 335.329 88.0144 334.257 88.0893C332.658 88.2011 331.386 87.7476 330.442 86.7286L330.759 91.2707L332.878 91.4652L332.986 93.0117L326.629 93.4562ZM333.383 86.2659C334.52 86.1865 335.351 85.7123 335.878 84.8433C336.404 83.9744 336.621 82.8783 336.529 81.555L336.511 81.2993C336.406 79.7975 336.028 78.588 335.376 77.6709C334.725 76.7538 333.823 76.3356 332.67 76.4162C331.988 76.4639 331.414 76.659 330.949 77.0016C330.483 77.3441 330.119 77.7938 329.856 78.3506L330.305 84.768C330.643 85.291 331.062 85.6859 331.562 85.9527C332.07 86.2109 332.677 86.3153 333.383 86.2659ZM348.2 87.1143C346.982 87.1995 345.911 86.9888 344.986 86.4824C344.069 85.9674 343.336 85.2232 342.787 84.2501C342.237 83.2688 341.917 82.1287 341.826 80.8298L341.807 80.5619C341.716 79.263 341.875 78.0934 342.284 77.0533C342.692 76.005 343.314 75.162 344.15 74.5243C344.995 73.8861 346.018 73.5249 347.219 73.4409C348.437 73.3558 349.505 73.5707 350.422 74.0858C351.347 74.6003 352.084 75.3442 352.633 76.3173C353.183 77.2905 353.503 78.4306 353.595 79.7376L353.613 80.0055C353.705 81.3125 353.546 82.4902 353.138 83.5385C352.73 84.5786 352.107 85.4135 351.27 86.0431C350.433 86.6726 349.41 87.0297 348.2 87.1143ZM348.069 85.239C349.205 85.1595 350.038 84.6445 350.567 83.6938C351.096 82.7431 351.312 81.5696 351.214 80.1733L351.196 79.9054C351.131 78.9799 350.939 78.1653 350.621 77.4615C350.31 76.749 349.88 76.2039 349.332 75.8262C348.783 75.4404 348.123 75.2745 347.351 75.3284C346.588 75.3818 345.962 75.6377 345.472 76.0962C344.981 76.5465 344.631 77.1461 344.423 77.8949C344.213 78.6356 344.141 79.4687 344.206 80.3941L344.225 80.662C344.322 82.0584 344.695 83.1907 345.343 84.0591C345.999 84.9269 346.908 85.3202 348.069 85.239ZM355.759 90.2201L355.126 84.4886L356.161 84.4162C356.571 83.8654 356.912 83.3154 357.184 82.7661C357.455 82.2169 357.655 81.5666 357.782 80.8154C357.916 80.0554 357.983 79.0881 357.982 77.9134L357.889 74.8241L355.954 74.629L355.846 73.0824L368.425 72.2028L368.533 73.7493L366.572 74.2291L367.23 83.6421L368.984 83.5195L369.142 89.2842L366.987 89.435L366.716 85.5626L357.644 86.197L357.915 90.0693L355.759 90.2201ZM358.925 84.2229L364.831 83.8099L364.19 74.6404L360.293 74.9129L360.381 77.7457C360.394 79.2132 360.27 80.4741 360.01 81.5284C359.757 82.5821 359.395 83.4803 358.925 84.2229ZM374.468 90.368C374.281 90.3811 374.036 90.3738 373.732 90.3461C373.429 90.3265 373.194 90.3021 373.029 90.2728L373.141 88.3683C373.28 88.3749 373.471 88.3737 373.716 88.3648C373.96 88.364 374.127 88.3605 374.217 88.3543C374.728 88.3185 375.128 88.0947 375.418 87.6829C375.715 87.2705 375.978 86.7178 376.207 86.0247L376.683 84.5964L371.238 73.756L369.812 73.6599L369.704 72.1134L375.232 71.7268L375.34 73.2733L373.762 73.6284L376.792 80.0367L377.533 81.7102L377.606 81.7051L380.07 73.1873L378.372 73.0613L378.264 71.5148L383.683 71.1359L383.791 72.6824L382.441 72.9726L378.194 86.7912C377.896 87.7747 377.464 88.5963 376.898 89.2558C376.333 89.9235 375.523 90.2942 374.468 90.368ZM386.029 84.2121L385.922 82.6777L387.883 82.198L387.225 72.7849L385.216 72.5828L385.108 71.0362L391.477 70.5909L391.585 72.1374L389.624 72.6172L389.881 76.2947L391.147 76.2062L393.641 72.324C394.088 71.5993 394.535 71.0419 394.981 70.6518C395.435 70.2611 395.958 70.045 396.55 70.0036C396.924 69.9775 397.236 70.0046 397.486 70.085C397.736 70.1573 398.022 70.28 398.344 70.4533L398.117 72.1089C397.764 72.0765 397.559 72.0582 397.501 72.0541C397.452 72.0493 397.346 72.0527 397.184 72.064C396.884 72.085 396.595 72.2153 396.318 72.455C396.049 72.694 395.816 72.9714 395.618 73.2871L393.303 76.7651L397.81 81.5405L399.524 81.7266L399.631 83.2609L396.429 83.4849L391.581 78.2071L390.022 78.3161L390.282 82.0302L392.291 82.2324L392.398 83.7667L386.029 84.2121ZM413.263 86.2357L412.99 82.3268L401.092 83.1587L400.985 81.6244L402.946 81.1446L402.288 71.7316L400.279 71.5294L400.171 69.9829L406.54 69.5376L406.648 71.0841L404.687 71.5638L405.345 80.9769L411.215 80.5665L410.556 71.1534L408.548 70.9512L408.44 69.4047L414.808 68.9594L414.916 70.5059L412.956 70.9978L413.614 80.3987L415.233 80.2855L415.406 86.0859L413.263 86.2357ZM418.007 81.976L417.899 80.4416L419.86 79.9619L419.202 70.5488L417.194 70.3467L417.085 68.8001L423.442 68.3557L423.55 69.9022L421.589 70.3819L422.109 77.8223L422.184 77.8415L427.339 68.0832L431.722 67.7766L431.831 69.3231L429.87 69.8029L430.528 79.2159L432.537 79.4181L432.644 80.9525L426.275 81.3978L426.168 79.8635L428.129 79.3837L427.608 71.9312L427.533 71.9119L422.378 81.6703L418.007 81.976ZM435.006 80.7873L434.899 79.2529L436.86 78.7732L436.202 69.3601L434.193 69.1579L434.085 67.6114L440.441 67.1669L440.55 68.7134L438.589 69.1932L439.109 76.6335L439.184 76.6528L444.338 66.8944L448.722 66.5879L448.83 68.1344L446.869 68.6142L447.527 78.0272L449.536 78.2294L449.643 79.7637L443.275 80.2091L443.167 78.6747L445.128 78.195L444.607 70.7425L444.532 70.7232L439.378 80.4816L435.006 80.7873ZM452.721 83.3542L451.306 82.5476C451.647 81.9364 451.894 81.3195 452.046 80.697C452.198 80.0746 452.25 79.4224 452.203 78.7404L452.073 76.8895L454.472 76.7217L454.599 78.5361C454.655 79.3317 454.514 80.1777 454.177 81.0742C453.84 81.9707 453.355 82.7307 452.721 83.3542ZM36.4593 140.735L36.352 139.2L38.313 138.72L37.6548 129.307L35.6461 129.105L35.5379 127.559L41.9067 127.113L42.0148 128.66L40.0537 129.14L40.3203 132.951L46.1776 132.542L45.911 128.73L43.9023 128.528L43.7941 126.981L50.175 126.535L50.2832 128.082L48.3221 128.561L48.9804 137.974L50.9891 138.177L51.0964 139.711L44.7155 140.157L44.6082 138.623L46.5693 138.143L46.3087 134.417L40.4514 134.826L40.712 138.553L42.7207 138.755L42.828 140.289L36.4593 140.735ZM59.2 139.401C57.9823 139.486 56.9035 139.285 55.9638 138.795C55.0235 138.298 54.2712 137.572 53.7067 136.616C53.1503 135.66 52.8267 134.532 52.7359 133.233L52.6985 132.697C52.611 131.447 52.7887 130.313 53.2315 129.295C53.6818 128.268 54.3133 127.441 55.1259 126.813C55.9461 126.176 56.8636 125.823 57.8784 125.752C59.6482 125.628 61.0252 126.07 62.0093 127.078C63.0016 128.086 63.5602 129.482 63.6851 131.268L63.7898 132.766L55.2414 133.364L55.2091 133.427C55.322 134.692 55.7156 135.713 56.3899 136.49C57.0637 137.258 57.9567 137.604 59.0689 137.526C59.8807 137.469 60.5831 137.306 61.176 137.036C61.7766 136.757 62.2859 136.4 62.704 135.962L63.7506 137.456C63.3116 137.943 62.7134 138.372 61.9562 138.744C61.2066 139.106 60.2878 139.325 59.2 139.401ZM55.1833 131.483L61.2598 131.059L61.2376 130.742C61.1718 129.8 60.8651 129.03 60.3174 128.432C59.7698 127.834 59.0008 127.57 58.0104 127.639C57.2067 127.695 56.5446 128.084 56.024 128.806C55.5028 129.52 55.2131 130.392 55.1547 131.424L55.1833 131.483ZM78.2696 138.068C77.0763 138.151 76.0178 137.948 75.0944 137.458C74.1703 136.959 73.4301 136.232 72.8737 135.276C72.3174 134.319 71.9938 133.192 71.903 131.893L71.8672 131.381C71.7798 130.131 71.9369 128.994 72.3385 127.971C72.7401 126.948 73.3632 126.117 74.2077 125.479C75.0523 124.84 76.0875 124.478 77.3134 124.393C78.3769 124.318 79.3186 124.428 80.1386 124.721C80.9667 125.014 81.674 125.446 82.2605 126.017L82.5428 129.179L80.6675 129.31L80.0925 127.037C79.7966 126.772 79.4357 126.569 79.0098 126.428C78.5838 126.286 78.0908 126.235 77.5306 126.274C76.8162 126.324 76.2018 126.579 75.6874 127.039C75.1811 127.499 74.8025 128.093 74.5515 128.82C74.3005 129.547 74.2054 130.345 74.2661 131.214L74.3019 131.725C74.403 133.17 74.7958 134.297 75.4805 135.106C76.1647 135.906 77.0466 136.269 78.1263 136.193C78.9381 136.137 79.5963 135.866 80.1009 135.382C80.6055 134.898 80.8914 134.262 80.9587 133.475L83.1141 133.324L83.1436 133.395C83.1558 134.153 82.9819 134.875 82.622 135.561C82.262 136.247 81.7188 136.819 80.9922 137.278C80.2731 137.728 79.3656 137.991 78.2696 138.068ZM88.5362 142.44C88.3495 142.453 88.1042 142.446 87.8004 142.418C87.4972 142.399 87.263 142.374 87.0978 142.345L87.2094 140.441C87.3485 140.447 87.5402 140.446 87.7843 140.437C88.029 140.436 88.1959 140.433 88.2852 140.427C88.7967 140.391 89.1971 140.167 89.4865 139.755C89.7839 139.343 90.0471 138.79 90.276 138.097L90.7513 136.669L85.3065 125.828L83.8803 125.732L83.7722 124.186L89.3007 123.799L89.4088 125.346L87.8306 125.701L90.8607 132.109L91.6018 133.783L91.6749 133.778L94.1385 125.26L92.441 125.134L92.3328 123.587L97.7517 123.208L97.8599 124.755L96.5097 125.045L92.2631 138.864C91.9647 139.847 91.5327 140.669 90.967 141.328C90.4018 141.996 89.5916 142.367 88.5362 142.44ZM99.5406 140.215L98.9073 134.483L99.9423 134.411C100.353 133.86 100.693 133.31 100.965 132.761C101.237 132.212 101.436 131.561 101.563 130.81C101.697 130.05 101.764 129.083 101.764 127.908L101.67 124.819L99.7352 124.624L99.627 123.077L112.206 122.198L112.314 123.744L110.353 124.224L111.012 133.637L112.765 133.514L112.923 139.279L110.768 139.43L110.497 135.557L101.425 136.192L101.696 140.064L99.5406 140.215ZM102.707 134.218L108.613 133.805L107.971 124.635L104.075 124.908L104.163 127.74C104.175 129.208 104.052 130.469 103.791 131.523C103.538 132.577 103.177 133.475 102.707 134.218ZM122.338 126.041C123.897 125.932 125.138 126.245 126.062 126.98C126.986 127.707 127.492 128.703 127.581 129.97C127.67 131.244 127.305 132.322 126.485 133.203C125.674 134.084 124.493 134.579 122.942 134.687L115.295 135.222L115.188 133.687L117.149 133.208L116.491 123.795L114.482 123.592L114.374 122.046L120.742 121.601L120.851 123.147L118.89 123.627L119.074 126.269L122.338 126.041ZM122.811 132.812C123.68 132.751 124.301 132.479 124.675 131.996C125.057 131.504 125.224 130.914 125.176 130.224C125.129 129.558 124.881 128.992 124.433 128.526C123.984 128.059 123.33 127.856 122.469 127.916L119.205 128.145L119.548 133.04L122.811 132.812ZM129.664 134.217L129.557 132.683L131.268 132.306L133.264 128.471C132.407 128.229 131.728 127.799 131.228 127.182C130.736 126.563 130.46 125.828 130.401 124.976C130.318 123.79 130.701 122.793 131.55 121.983C132.398 121.165 133.606 120.701 135.173 120.592L142.722 120.064L142.831 121.61L140.87 122.09L141.528 131.503L143.537 131.705L143.644 133.239L137.275 133.685L137.168 132.15L139.129 131.671L138.902 128.432L135.651 128.659L132.891 133.991L129.664 134.217ZM135.361 126.782L138.77 126.544L138.469 122.233L135.303 122.455C134.434 122.515 133.792 122.781 133.376 123.25C132.96 123.712 132.772 124.239 132.814 124.831C132.855 125.416 133.088 125.901 133.515 126.287C133.95 126.673 134.565 126.838 135.361 126.782ZM146.624 136.837L145.21 136.03C145.55 135.419 145.797 134.802 145.949 134.18C146.101 133.557 146.153 132.905 146.106 132.223L145.976 130.372L148.375 130.204L148.502 132.019C148.558 132.814 148.417 133.66 148.08 134.557C147.743 135.453 147.258 136.213 146.624 136.837ZM161.039 132.28C159.667 132.376 158.6 132.116 157.839 131.5C157.078 130.876 156.654 129.956 156.569 128.738C156.482 127.488 156.923 126.449 157.893 125.623C158.863 124.788 160.257 124.307 162.075 124.18L164.426 124.016L164.335 122.725C164.28 121.929 163.993 121.33 163.475 120.925C162.966 120.52 162.272 120.349 161.396 120.41C160.844 120.448 160.369 120.551 159.973 120.717C159.576 120.876 159.22 121.084 158.903 121.343L158.776 123.199L156.925 123.329L156.714 120.309C157.839 119.251 159.368 118.655 161.3 118.52C162.899 118.408 164.18 118.702 165.143 119.401C166.106 120.101 166.637 121.161 166.736 122.582L167.18 128.926C167.192 129.097 167.203 129.263 167.214 129.425C167.234 129.587 167.257 129.749 167.285 129.91L168.573 129.954L168.68 131.489L165.234 131.73C165.05 131.074 164.922 130.475 164.852 129.933C164.43 130.558 163.884 131.094 163.214 131.541C162.551 131.978 161.826 132.225 161.039 132.28ZM161.251 130.246C162.047 130.19 162.76 129.949 163.391 129.521C164.022 129.094 164.461 128.602 164.707 128.047L164.541 125.66L162.105 125.83C161.001 125.907 160.191 126.229 159.676 126.795C159.161 127.362 158.926 127.969 158.972 128.619C159.055 129.804 159.814 130.347 161.251 130.246ZM182.726 130.763C181.533 130.847 180.475 130.644 179.551 130.153C178.627 129.655 177.887 128.928 177.331 127.971C176.774 127.015 176.451 125.887 176.36 124.589L176.324 124.077C176.237 122.827 176.394 121.69 176.795 120.667C177.197 119.643 177.82 118.813 178.665 118.174C179.509 117.536 180.544 117.174 181.77 117.088C182.834 117.014 183.775 117.124 184.595 117.417C185.424 117.71 186.131 118.142 186.717 118.713L187 121.874L185.124 122.006L184.549 119.733C184.253 119.468 183.893 119.265 183.467 119.123C183.041 118.982 182.548 118.931 181.987 118.97C181.273 119.02 180.659 119.275 180.144 119.735C179.638 120.195 179.259 120.788 179.008 121.515C178.757 122.243 178.662 123.041 178.723 123.909L178.759 124.421C178.86 125.866 179.253 126.993 179.937 127.801C180.622 128.602 181.503 128.965 182.583 128.889C183.395 128.832 184.053 128.562 184.558 128.078C185.062 127.594 185.348 126.958 185.416 126.17L187.571 126.019L187.6 126.091C187.613 126.849 187.439 127.571 187.079 128.257C186.719 128.942 186.176 129.515 185.449 129.974C184.73 130.424 183.822 130.687 182.726 130.763ZM196.048 129.832C194.831 129.917 193.76 129.706 192.835 129.2C191.918 128.685 191.185 127.941 190.635 126.968C190.085 125.986 189.765 124.846 189.674 123.547L189.655 123.28C189.565 121.981 189.723 120.811 190.132 119.771C190.54 118.723 191.162 117.88 191.999 117.242C192.843 116.604 193.866 116.243 195.068 116.159C196.286 116.073 197.353 116.288 198.27 116.803C199.195 117.318 199.933 118.062 200.482 119.035C201.031 120.008 201.352 121.148 201.443 122.455L201.462 122.723C201.553 124.03 201.395 125.208 200.987 126.256C200.578 127.296 199.955 128.131 199.118 128.761C198.281 129.39 197.258 129.747 196.048 129.832ZM195.917 127.957C197.054 127.877 197.887 127.362 198.416 126.411C198.945 125.461 199.16 124.287 199.063 122.891L199.044 122.623C198.979 121.698 198.788 120.883 198.469 120.179C198.159 119.467 197.729 118.922 197.18 118.544C196.631 118.158 195.971 117.992 195.2 118.046C194.437 118.099 193.81 118.355 193.32 118.814C192.829 119.264 192.48 119.864 192.271 120.613C192.062 121.353 191.99 122.186 192.054 123.112L192.073 123.38C192.171 124.776 192.544 125.908 193.192 126.777C193.848 127.644 194.756 128.038 195.917 127.957ZM206.875 134.165C206.688 134.178 206.443 134.171 206.139 134.143C205.836 134.124 205.602 134.099 205.437 134.07L205.548 132.166C205.687 132.172 205.879 132.171 206.123 132.162C206.368 132.161 206.535 132.158 206.624 132.152C207.136 132.116 207.536 131.892 207.825 131.48C208.123 131.068 208.386 130.515 208.615 129.822L209.09 128.394L203.645 117.553L202.219 117.457L202.111 115.911L207.64 115.524L207.748 117.071L206.17 117.426L209.2 123.834L209.941 125.508L210.014 125.502L212.477 116.985L210.78 116.859L210.672 115.312L216.091 114.933L216.199 116.48L214.849 116.77L210.602 130.589C210.304 131.572 209.872 132.394 209.306 133.053C208.741 133.721 207.931 134.092 206.875 134.165ZM226.121 127.472L226.013 125.938L227.974 125.458L227.777 122.633C226.884 122.932 225.898 123.119 224.818 123.195C223.227 123.306 221.952 122.975 220.992 122.202C220.032 121.429 219.495 120.222 219.381 118.582L219.241 116.585L217.232 116.383L217.125 114.849L223.494 114.403L223.601 115.938L221.64 116.417L221.78 118.414C221.853 119.47 222.131 120.23 222.612 120.694C223.101 121.157 223.792 121.357 224.685 121.295C225.716 121.223 226.702 121.032 227.643 120.721L227.316 116.045L225.307 115.843L225.199 114.296L231.568 113.851L231.676 115.397L229.715 115.877L230.373 125.29L232.382 125.492L232.489 127.027L226.121 127.472ZM238.949 126.832C237.577 126.928 236.511 126.668 235.75 126.052C234.988 125.428 234.565 124.508 234.48 123.29C234.392 122.04 234.834 121.001 235.804 120.175C236.773 119.34 238.167 118.859 239.986 118.732L242.336 118.568L242.246 117.277C242.19 116.481 241.903 115.881 241.386 115.477C240.876 115.072 240.183 114.9 239.306 114.962C238.754 115 238.28 115.103 237.884 115.269C237.487 115.428 237.13 115.636 236.814 115.895L236.687 117.751L234.836 117.881L234.624 114.861C235.75 113.803 237.278 113.207 239.211 113.072C240.81 112.96 242.091 113.254 243.053 113.953C244.016 114.653 244.547 115.713 244.646 117.134L245.09 123.478C245.102 123.648 245.113 123.815 245.125 123.977C245.144 124.139 245.168 124.301 245.195 124.462L246.483 124.506L246.591 126.041L243.145 126.282C242.96 125.626 242.832 125.027 242.762 124.485C242.341 125.11 241.795 125.646 241.124 126.093C240.462 126.53 239.737 126.777 238.949 126.832ZM239.162 124.798C239.957 124.742 240.671 124.501 241.301 124.073C241.932 123.646 242.371 123.154 242.618 122.599L242.451 120.212L240.015 120.382C238.911 120.459 238.102 120.781 237.587 121.347C237.071 121.914 236.837 122.521 236.882 123.171C236.965 124.356 237.725 124.899 239.162 124.798ZM254.426 125.75C253.233 125.833 252.175 125.63 251.251 125.14C250.327 124.641 249.587 123.914 249.031 122.958C248.474 122.001 248.151 120.874 248.06 119.575L248.024 119.063C247.937 117.813 248.094 116.676 248.495 115.653C248.897 114.63 249.52 113.799 250.365 113.161C251.209 112.522 252.244 112.16 253.47 112.075C254.534 112 255.475 112.11 256.295 112.403C257.123 112.696 257.831 113.128 258.417 113.699L258.7 116.861L256.824 116.992L256.249 114.719C255.953 114.454 255.592 114.251 255.167 114.11C254.741 113.968 254.248 113.917 253.687 113.956C252.973 114.006 252.359 114.261 251.844 114.721C251.338 115.181 250.959 115.774 250.708 116.502C250.457 117.229 250.362 118.027 250.423 118.896L250.459 119.407C250.56 120.852 250.953 121.979 251.637 122.788C252.321 123.588 253.203 123.951 254.283 123.875C255.095 123.819 255.753 123.548 256.258 123.064C256.762 122.58 257.048 121.944 257.115 121.156L259.271 121.006L259.3 121.077C259.313 121.835 259.139 122.557 258.779 123.243C258.419 123.929 257.876 124.501 257.149 124.96C256.43 125.41 255.522 125.673 254.426 125.75ZM264.528 124.786L264.421 123.252L266.382 122.772L265.722 113.335L262.945 113.529L262.907 115.6L260.861 115.743L260.587 111.822L273.056 110.95L273.33 114.871L271.272 115.015L270.946 112.97L268.121 113.167L268.781 122.605L270.789 122.807L270.897 124.341L264.528 124.786ZM276.182 123.972L276.074 122.437L278.035 121.957L277.377 112.544L275.368 112.342L275.26 110.796L281.629 110.35L281.737 111.897L279.776 112.377L280.043 116.188L285.9 115.779L285.633 111.967L283.625 111.765L283.516 110.218L289.897 109.772L290.005 111.319L288.044 111.798L288.703 121.211L290.711 121.414L290.819 122.948L284.438 123.394L284.33 121.86L286.291 121.38L286.031 117.654L280.174 118.063L280.434 121.79L282.443 121.992L282.55 123.526L276.182 123.972ZM293.181 122.783L293.074 121.248L295.035 120.769L294.377 111.356L292.368 111.153L292.26 109.607L298.616 109.162L298.724 110.709L296.763 111.189L297.284 118.629L297.358 118.648L302.513 108.89L306.897 108.583L307.005 110.13L305.044 110.61L305.702 120.023L307.711 120.225L307.818 121.759L301.449 122.205L301.342 120.67L303.303 120.191L302.782 112.738L302.707 112.719L297.553 122.477L293.181 122.783ZM310.181 121.594L310.073 120.06L312.034 119.58L311.376 110.167L309.367 109.965L309.259 108.418L315.628 107.973L315.736 109.519L313.775 109.999L314.032 113.677L315.299 113.588L317.793 109.706C318.24 108.981 318.686 108.424 319.132 108.034C319.586 107.643 320.109 107.427 320.702 107.386C321.075 107.359 321.387 107.387 321.638 107.467C321.887 107.539 322.173 107.662 322.495 107.835L322.269 109.491C321.915 109.458 321.71 109.44 321.653 109.436C321.604 109.431 321.498 109.435 321.335 109.446C321.035 109.467 320.746 109.597 320.469 109.837C320.201 110.076 319.967 110.353 319.769 110.669L317.455 114.147L321.961 118.923L323.675 119.109L323.783 120.643L320.58 120.867L315.732 115.589L314.174 115.698L314.433 119.412L316.442 119.614L316.549 121.149L310.181 121.594ZM41.4801 172.462L41.3728 170.927L43.3339 170.447L42.6739 161.01L39.8975 161.204L39.8587 163.275L37.813 163.418L37.5388 159.497L50.0083 158.625L50.2825 162.546L48.2246 162.69L47.898 160.645L45.0729 160.842L45.7328 170.28L47.7415 170.482L47.8488 172.016L41.4801 172.462ZM53.1338 171.647L53.0265 170.112L54.9875 169.633L54.3293 160.22L52.3206 160.017L52.2124 158.471L59.3848 157.969C61.1221 157.848 62.491 158.058 63.4916 158.6C64.4915 159.134 65.0338 160.005 65.1184 161.215C65.1615 161.832 65.0134 162.397 64.674 162.91C64.3341 163.415 63.8319 163.818 63.1676 164.117C64.0017 164.262 64.6698 164.599 65.1717 165.127C65.673 165.647 65.9487 166.264 65.9986 166.978C66.0849 168.212 65.6996 169.177 64.8428 169.873C63.9941 170.569 62.7619 170.973 61.1464 171.086L53.1338 171.647ZM56.9854 163.729L59.7862 163.533C61.832 163.39 62.8126 162.714 62.728 161.504C62.64 160.246 61.569 159.689 59.5151 159.832L56.7265 160.027L56.9854 163.729ZM57.3882 169.489L61.017 169.235C62.8192 169.109 63.6747 168.393 63.5833 167.086C63.5395 166.461 63.2785 165.994 62.8 165.684C62.3215 165.375 61.6358 165.252 60.7428 165.314L57.114 165.568L57.3882 169.489ZM74.3158 170.422C73.0981 170.508 72.0269 170.297 71.1023 169.791C70.1852 169.275 69.452 168.531 68.9026 167.558C68.3527 166.577 68.0323 165.437 67.9415 164.138L67.9227 163.87C67.8319 162.571 67.9908 161.402 68.3994 160.361C68.8074 159.313 69.4296 158.47 70.2661 157.832C71.1106 157.194 72.1337 156.833 73.3352 156.749C74.5529 156.664 75.6203 156.879 76.5374 157.394C77.4626 157.908 78.1998 158.652 78.7492 159.625C79.2986 160.599 79.619 161.739 79.7103 163.046L79.7291 163.314C79.8205 164.621 79.6622 165.798 79.2542 166.847C78.8456 167.887 78.2228 168.722 77.3857 169.351C76.5487 169.981 75.5254 170.338 74.3158 170.422ZM74.1846 168.547C75.3212 168.468 76.154 167.953 76.683 167.002C77.2121 166.051 77.4278 164.878 77.3302 163.481L77.3114 163.213C77.2467 162.288 77.0551 161.473 76.7367 160.77C76.4258 160.057 75.9961 159.512 75.4476 159.134C74.8985 158.749 74.2384 158.583 73.4672 158.637C72.704 158.69 72.0775 158.946 71.5874 159.404C71.0968 159.855 70.7472 160.454 70.5385 161.203C70.3292 161.944 70.2569 162.777 70.3217 163.702L70.3404 163.97C70.438 165.367 70.8109 166.499 71.459 167.367C72.1152 168.235 73.0237 168.628 74.1846 168.547ZM82.336 174.695L82.2279 173.149L84.0671 172.677L83.0555 158.211L81.0468 158.009L80.9387 156.462L84.9815 156.179L85.3131 157.771C86.1279 156.474 87.3472 155.769 88.9708 155.656C90.0587 155.58 91.0089 155.811 91.8216 156.35C92.6337 156.88 93.2799 157.663 93.7601 158.698C94.2399 159.725 94.5294 160.949 94.6287 162.37L94.6466 162.625C94.7352 163.892 94.6056 165.014 94.258 165.993C93.9185 166.971 93.386 167.755 92.6603 168.344C91.9341 168.925 91.0352 169.253 89.9636 169.328C88.3643 169.44 87.0926 168.987 86.1485 167.968L86.4661 172.51L88.5844 172.704L88.6926 174.251L82.336 174.695ZM89.0897 167.505C90.2262 167.425 91.0578 166.951 91.5844 166.082C92.111 165.213 92.328 164.117 92.2355 162.794L92.2176 162.538C92.1126 161.036 91.7343 159.827 91.0828 158.91C90.4313 157.993 89.5292 157.575 88.3764 157.655C87.6945 157.703 87.1208 157.898 86.6553 158.241C86.1897 158.583 85.8255 159.033 85.5626 159.59L86.0114 166.007C86.3498 166.53 86.769 166.925 87.2689 167.192C87.7765 167.45 88.3834 167.554 89.0897 167.505ZM105.411 167.991L105.304 166.457L107.265 165.977L107.067 163.152C106.174 163.451 105.188 163.638 104.108 163.714C102.517 163.825 101.242 163.494 100.282 162.721C99.3226 161.948 98.7855 160.741 98.6708 159.101L98.5312 157.104L96.5224 156.902L96.4151 155.368L102.784 154.922L102.891 156.457L100.93 156.936L101.07 158.933C101.144 159.989 101.421 160.749 101.902 161.213C102.391 161.676 103.083 161.876 103.976 161.814C105.007 161.742 105.992 161.551 106.933 161.24L106.606 156.564L104.598 156.362L104.49 154.815L110.858 154.37L110.966 155.916L109.005 156.396L109.664 165.809L111.672 166.011L111.78 167.546L105.411 167.991ZM119.981 167.229C118.763 167.314 117.684 167.112 116.744 166.623C115.804 166.126 115.052 165.4 114.487 164.444C113.931 163.488 113.607 162.36 113.517 161.061L113.479 160.525C113.392 159.275 113.569 158.141 114.012 157.123C114.462 156.096 115.094 155.269 115.907 154.641C116.727 154.004 117.644 153.651 118.659 153.58C120.429 153.456 121.806 153.898 122.79 154.906C123.782 155.914 124.341 157.31 124.466 159.096L124.57 160.594L116.022 161.192L115.99 161.255C116.103 162.52 116.496 163.541 117.171 164.318C117.844 165.086 118.737 165.432 119.85 165.354C120.661 165.297 121.364 165.134 121.957 164.864C122.557 164.585 123.067 164.228 123.485 163.79L124.531 165.284C124.092 165.771 123.494 166.2 122.737 166.572C121.987 166.934 121.068 167.153 119.981 167.229ZM115.964 159.311L122.04 158.887L122.018 158.57C121.952 157.628 121.646 156.858 121.098 156.26C120.55 155.662 119.781 155.398 118.791 155.467C117.987 155.523 117.325 155.912 116.805 156.634C116.283 157.348 115.994 158.22 115.935 159.252L115.964 159.311ZM133.327 166.296C132.134 166.379 131.075 166.176 130.152 165.686C129.228 165.188 128.487 164.46 127.931 163.504C127.375 162.548 127.051 161.42 126.96 160.121L126.925 159.61C126.837 158.359 126.994 157.223 127.396 156.199C127.797 155.176 128.42 154.345 129.265 153.707C130.11 153.069 131.145 152.707 132.371 152.621C133.434 152.547 134.376 152.656 135.196 152.95C136.024 153.242 136.731 153.674 137.318 154.245L137.6 157.407L135.725 157.538L135.15 155.265C134.854 155.001 134.493 154.797 134.067 154.656C133.641 154.514 133.148 154.463 132.588 154.502C131.874 154.552 131.259 154.807 130.745 155.268C130.238 155.727 129.86 156.321 129.609 157.048C129.358 157.775 129.263 158.573 129.323 159.442L129.359 159.953C129.46 161.398 129.853 162.525 130.538 163.334C131.222 164.134 132.104 164.497 133.184 164.422C133.995 164.365 134.654 164.094 135.158 163.61C135.663 163.126 135.949 162.491 136.016 161.703L138.171 161.552L138.201 161.623C138.213 162.381 138.039 163.103 137.679 163.789C137.319 164.475 136.776 165.047 136.049 165.506C135.33 165.956 134.423 166.219 133.327 166.296ZM143.428 165.333L143.321 163.798L145.282 163.319L144.622 153.881L141.846 154.075L141.807 156.146L139.761 156.289L139.487 152.368L151.957 151.496L152.231 155.417L150.173 155.561L149.846 153.516L147.021 153.713L147.681 163.151L149.69 163.353L149.797 164.887L143.428 165.333ZM155.082 164.518L154.975 162.983L156.936 162.504L156.278 153.091L154.269 152.888L154.161 151.342L161.333 150.84C163.07 150.719 164.439 150.929 165.44 151.471C166.44 152.005 166.982 152.876 167.067 154.086C167.11 154.703 166.962 155.268 166.622 155.781C166.282 156.286 165.78 156.689 165.116 156.988C165.95 157.134 166.618 157.47 167.12 157.998C167.621 158.518 167.897 159.135 167.947 159.849C168.033 161.083 167.648 162.048 166.791 162.744C165.942 163.44 164.71 163.844 163.095 163.957L155.082 164.518ZM158.934 156.6L161.734 156.405C163.78 156.261 164.761 155.585 164.676 154.376C164.588 153.117 163.517 152.56 161.463 152.703L158.675 152.898L158.934 156.6ZM159.336 162.36L162.965 162.106C164.768 161.98 165.623 161.264 165.532 159.957C165.488 159.332 165.227 158.865 164.748 158.556C164.27 158.246 163.584 158.123 162.691 158.185L159.062 158.439L159.336 162.36ZM174.571 163.412C173.199 163.508 172.133 163.248 171.372 162.632C170.611 162.008 170.187 161.088 170.102 159.87C170.015 158.62 170.456 157.581 171.426 156.755C172.396 155.92 173.79 155.439 175.608 155.312L177.958 155.148L177.868 153.857C177.812 153.061 177.526 152.461 177.008 152.057C176.498 151.652 175.805 151.48 174.928 151.542C174.376 151.58 173.902 151.683 173.506 151.849C173.109 152.007 172.753 152.216 172.436 152.475L172.309 154.331L170.458 154.461L170.247 151.441C171.372 150.383 172.901 149.787 174.833 149.652C176.432 149.54 177.713 149.834 178.676 150.533C179.638 151.233 180.169 152.293 180.269 153.714L180.712 160.058C180.724 160.228 180.736 160.395 180.747 160.557C180.767 160.719 180.79 160.88 180.818 161.042L182.106 161.086L182.213 162.621L178.767 162.862C178.582 162.205 178.455 161.607 178.384 161.065C177.963 161.69 177.417 162.226 176.747 162.672C176.084 163.11 175.359 163.357 174.571 163.412ZM174.784 161.378C175.58 161.322 176.293 161.081 176.924 160.653C177.555 160.226 177.993 159.734 178.24 159.178L178.073 156.792L175.638 156.962C174.534 157.039 173.724 157.361 173.209 157.927C172.694 158.493 172.459 159.101 172.504 159.751C172.587 160.936 173.347 161.478 174.784 161.378ZM185.072 166.226L183.657 165.42C183.998 164.809 184.244 164.192 184.396 163.569C184.549 162.947 184.601 162.295 184.553 161.613L184.424 159.762L186.823 159.594L186.95 161.408C187.005 162.204 186.865 163.05 186.528 163.946C186.19 164.843 185.705 165.603 185.072 166.226ZM201.179 161.551C199.985 161.635 198.927 161.431 198.004 160.941C197.08 160.443 196.339 159.716 195.783 158.759C195.227 157.803 194.903 156.675 194.812 155.376L194.776 154.865C194.689 153.615 194.846 152.478 195.248 151.455C195.649 150.431 196.272 149.6 197.117 148.962C197.962 148.324 198.997 147.962 200.223 147.876C201.286 147.802 202.228 147.911 203.048 148.205C203.876 148.498 204.583 148.93 205.17 149.5L205.452 152.662L203.577 152.793L203.002 150.521C202.706 150.256 202.345 150.053 201.919 149.911C201.493 149.77 201 149.719 200.44 149.758C199.725 149.808 199.111 150.063 198.597 150.523C198.09 150.983 197.712 151.576 197.461 152.303C197.21 153.031 197.115 153.829 197.175 154.697L197.211 155.209C197.312 156.654 197.705 157.781 198.39 158.589C199.074 159.39 199.956 159.752 201.036 159.677C201.847 159.62 202.506 159.35 203.01 158.866C203.515 158.382 203.801 157.746 203.868 156.958L206.023 156.807L206.053 156.879C206.065 157.636 205.891 158.358 205.531 159.044C205.171 159.73 204.628 160.303 203.901 160.761C203.182 161.211 202.275 161.475 201.179 161.551ZM214.501 160.62C213.283 160.705 212.212 160.494 211.287 159.988C210.37 159.473 209.637 158.729 209.088 157.756C208.538 156.774 208.217 155.634 208.126 154.335L208.108 154.067C208.017 152.768 208.176 151.599 208.584 150.559C208.992 149.51 209.615 148.667 210.451 148.03C211.296 147.392 212.319 147.03 213.52 146.946C214.738 146.861 215.805 147.076 216.722 147.591C217.648 148.106 218.385 148.85 218.934 149.823C219.484 150.796 219.804 151.936 219.895 153.243L219.914 153.511C220.006 154.818 219.847 155.996 219.439 157.044C219.031 158.084 218.408 158.919 217.571 159.549C216.734 160.178 215.71 160.535 214.501 160.62ZM214.37 158.744C215.506 158.665 216.339 158.15 216.868 157.199C217.397 156.249 217.613 155.075 217.515 153.679L217.496 153.411C217.432 152.485 217.24 151.671 216.922 150.967C216.611 150.254 216.181 149.709 215.633 149.332C215.084 148.946 214.423 148.78 213.652 148.834C212.889 148.887 212.262 149.143 211.772 149.602C211.282 150.052 210.932 150.652 210.723 151.4C210.514 152.141 210.442 152.974 210.507 153.9L210.525 154.167C210.623 155.564 210.996 156.696 211.644 157.565C212.3 158.432 213.209 158.826 214.37 158.744ZM227.056 159.742C225.684 159.838 224.617 159.578 223.856 158.962C223.095 158.338 222.671 157.417 222.586 156.2C222.499 154.95 222.94 153.911 223.91 153.085C224.88 152.25 226.274 151.769 228.092 151.642L230.442 151.478L230.352 150.187C230.297 149.391 230.01 148.791 229.492 148.387C228.982 147.982 228.289 147.81 227.413 147.872C226.86 147.91 226.386 148.013 225.99 148.179C225.593 148.337 225.237 148.546 224.92 148.805L224.793 150.661L222.942 150.791L222.731 147.771C223.856 146.713 225.385 146.117 227.317 145.982C228.916 145.87 230.197 146.164 231.16 146.863C232.123 147.563 232.653 148.623 232.753 150.043L233.196 156.388C233.208 156.558 233.22 156.725 233.231 156.887C233.251 157.049 233.274 157.21 233.302 157.372L234.59 157.416L234.697 158.951L231.251 159.191C231.067 158.535 230.939 157.937 230.868 157.395C230.447 158.02 229.901 158.556 229.231 159.002C228.568 159.44 227.843 159.687 227.056 159.742ZM227.268 157.708C228.064 157.652 228.777 157.411 229.408 156.983C230.039 156.556 230.478 156.064 230.724 155.508L230.557 153.122L228.122 153.292C227.018 153.369 226.208 153.691 225.693 154.257C225.178 154.823 224.943 155.431 224.989 156.081C225.071 157.266 225.831 157.808 227.268 157.708ZM236.84 158.801L236.733 157.266L238.694 156.787L238.036 147.373L236.027 147.171L235.919 145.625L243.092 145.123C244.829 145.002 246.198 145.212 247.198 145.754C248.198 146.288 248.74 147.159 248.825 148.369C248.868 148.986 248.72 149.551 248.381 150.064C248.041 150.569 247.539 150.972 246.874 151.271C247.708 151.416 248.376 151.753 248.878 152.281C249.38 152.801 249.655 153.418 249.705 154.132C249.792 155.366 249.406 156.331 248.549 157.027C247.701 157.723 246.469 158.127 244.853 158.24L236.84 158.801ZM240.692 150.883L243.493 150.687C245.539 150.544 246.519 149.868 246.435 148.658C246.347 147.4 245.276 146.843 243.222 146.986L240.433 147.181L240.692 150.883ZM241.095 156.643L244.724 156.389C246.526 156.263 247.381 155.547 247.29 154.24C247.246 153.615 246.985 153.148 246.507 152.838C246.028 152.529 245.342 152.406 244.449 152.468L240.821 152.722L241.095 156.643ZM254.972 157.533L254.865 155.998L256.826 155.519L256.166 146.081L253.39 146.275L253.351 148.346L251.305 148.489L251.031 144.568L263.501 143.696L263.775 147.617L261.717 147.761L261.39 145.716L258.565 145.913L259.225 155.351L261.234 155.553L261.341 157.087L254.972 157.533ZM271.807 156.613C270.589 156.698 269.518 156.487 268.594 155.981C267.677 155.466 266.943 154.721 266.394 153.748C265.844 152.767 265.524 151.627 265.433 150.328L265.414 150.06C265.323 148.761 265.482 147.592 265.891 146.551C266.299 145.503 266.921 144.66 267.757 144.023C268.602 143.384 269.625 143.023 270.827 142.939C272.044 142.854 273.112 143.069 274.029 143.584C274.954 144.099 275.691 144.842 276.241 145.816C276.79 146.789 277.11 147.929 277.202 149.236L277.22 149.504C277.312 150.811 277.154 151.988 276.746 153.037C276.337 154.077 275.714 154.912 274.877 155.541C274.04 156.171 273.017 156.528 271.807 156.613ZM271.676 154.737C272.813 154.658 273.645 154.143 274.174 153.192C274.703 152.241 274.919 151.068 274.822 149.671L274.803 149.404C274.738 148.478 274.547 147.663 274.228 146.96C273.917 146.247 273.488 145.702 272.939 145.324C272.39 144.939 271.73 144.773 270.959 144.827C270.195 144.88 269.569 145.136 269.079 145.594C268.588 146.045 268.239 146.644 268.03 147.393C267.821 148.134 267.748 148.967 267.813 149.892L267.832 150.16C267.929 151.557 268.302 152.689 268.95 153.557C269.607 154.425 270.515 154.818 271.676 154.737ZM279.827 160.885L279.719 159.339L281.559 158.867L280.547 144.401L278.538 144.199L278.43 142.652L282.473 142.369L282.804 143.962C283.619 142.665 284.839 141.959 286.462 141.846C287.55 141.77 288.5 142.001 289.313 142.54C290.125 143.07 290.771 143.853 291.252 144.888C291.731 145.915 292.021 147.139 292.12 148.56L292.138 148.815C292.227 150.082 292.097 151.204 291.749 152.183C291.41 153.161 290.877 153.945 290.152 154.534C289.426 155.115 288.527 155.443 287.455 155.518C285.856 155.63 284.584 155.177 283.64 154.158L283.957 158.7L286.076 158.894L286.184 160.441L279.827 160.885ZM286.581 153.695C287.718 153.615 288.549 153.141 289.076 152.272C289.602 151.403 289.819 150.307 289.727 148.984L289.709 148.728C289.604 147.226 289.226 146.017 288.574 145.1C287.923 144.183 287.021 143.765 285.868 143.845C285.186 143.893 284.612 144.088 284.147 144.431C283.681 144.773 283.317 145.223 283.054 145.78L283.503 152.197C283.841 152.72 284.26 153.115 284.76 153.382C285.268 153.64 285.875 153.744 286.581 153.695ZM295.803 154.678L295.631 152.218L298.03 152.05L298.202 154.51L295.803 154.678Z" fill="white"/>
<path d="M297.57 182.513L291.628 182.929L290.552 186.724L288.623 186.859L293.048 172.296L294.684 172.182L301.102 185.986L299.183 186.12L297.57 182.513ZM292.085 181.35L296.907 181.013L294.027 174.548L292.085 181.35ZM311.341 185.27L309.539 185.396L309.224 180.896L304.382 181.234L304.697 185.735L302.885 185.862L302.148 175.321L303.96 175.194L304.279 179.763L309.121 179.425L308.802 174.856L310.604 174.73L311.341 185.27ZM314.054 183.602L314.623 182.789C315.261 181.831 315.565 180.439 315.535 178.614L315.407 174.394L322.197 173.919L322.831 182.989L324.185 182.894L324.505 187.463L322.702 187.589L322.486 184.491L315.131 185.005L315.347 188.103L313.545 188.229L313.235 183.66L314.054 183.602ZM316.187 183.453L321.029 183.115L320.511 175.711L317.267 175.938L317.335 178.459C317.372 180.564 316.989 182.229 316.187 183.453ZM334.829 178.449C334.941 180.053 334.664 181.372 333.999 182.404C333.334 183.436 332.374 183.995 331.121 184.083C329.841 184.172 328.806 183.837 328.016 183.076L328.371 188.152L326.568 188.278L325.548 173.685L327.194 173.57L327.364 174.732C328.034 173.772 329.022 173.246 330.327 173.155C331.594 173.066 332.627 173.474 333.428 174.377C334.235 175.28 334.698 176.582 334.817 178.284L334.829 178.449ZM333.012 178.371C332.929 177.182 332.61 176.261 332.055 175.608C331.501 174.955 330.782 174.66 329.898 174.722C328.807 174.798 328.023 175.339 327.545 176.345L327.897 181.381C328.503 182.305 329.362 182.728 330.472 182.65C331.336 182.59 331.997 182.201 332.456 181.483C332.921 180.759 333.107 179.722 333.012 178.371ZM341.876 183.331C340.447 183.431 339.252 183.045 338.29 182.172C337.328 181.293 336.792 180.068 336.682 178.496L336.659 178.165C336.586 177.119 336.719 176.173 337.058 175.327C337.403 174.474 337.916 173.792 338.598 173.281C339.287 172.763 340.05 172.475 340.887 172.416C342.258 172.32 343.354 172.697 344.177 173.547C345 174.397 345.471 175.662 345.588 177.344L345.641 178.095L338.5 178.594C338.599 179.631 338.959 180.451 339.582 181.054C340.211 181.649 340.974 181.916 341.87 181.853C342.507 181.809 343.037 181.641 343.46 181.35C343.884 181.06 344.246 180.688 344.547 180.237L345.708 181.017C344.92 182.436 343.642 183.207 341.876 183.331ZM340.991 173.897C340.264 173.948 339.672 174.257 339.215 174.824C338.759 175.384 338.505 176.146 338.455 177.109L343.735 176.74L343.725 176.603C343.609 175.691 343.313 175.001 342.837 174.532C342.36 174.056 341.744 173.844 340.991 173.897ZM354.15 171.685L355.952 171.559L356.689 182.099L354.887 182.225L354.35 174.539L350.026 182.565L348.224 182.691L347.486 172.151L349.289 172.025L349.827 179.721L354.15 171.685ZM354.369 167.812C354.424 168.598 354.198 169.25 353.693 169.768C353.193 170.28 352.509 170.566 351.638 170.627C350.768 170.688 350.047 170.497 349.474 170.054C348.901 169.611 348.588 169 348.533 168.22L350.004 168.117C350.036 168.572 350.184 168.921 350.449 169.163C350.714 169.399 351.083 169.501 351.557 169.467C352.012 169.436 352.357 169.284 352.593 169.013C352.835 168.742 352.94 168.376 352.907 167.914L354.369 167.812ZM373.34 168.228L368.781 168.547L369.665 181.192L367.805 181.322L366.92 168.677L362.371 168.995L362.263 167.456L373.233 166.689L373.34 168.228ZM381.443 180.368C381.325 180.168 381.214 179.803 381.112 179.275C380.335 180.204 379.366 180.709 378.203 180.791C377.164 180.863 376.289 180.631 375.58 180.093C374.876 179.548 374.492 178.825 374.429 177.922C374.353 176.824 374.709 175.944 375.498 175.282C376.293 174.613 377.447 174.226 378.96 174.12L380.714 173.997L380.656 173.169C380.612 172.539 380.389 172.052 379.986 171.709C379.583 171.358 379.015 171.209 378.281 171.26C377.638 171.305 377.11 171.505 376.698 171.86C376.285 172.215 376.095 172.624 376.127 173.085L374.315 173.211C374.279 172.685 374.428 172.166 374.764 171.653C375.106 171.133 375.586 170.708 376.202 170.378C376.825 170.047 377.52 169.855 378.286 169.801C379.501 169.716 380.474 169.955 381.205 170.517C381.935 171.073 382.351 171.883 382.451 172.946L382.791 177.797C382.858 178.765 383.035 179.526 383.322 180.08L383.333 180.236L381.443 180.368ZM378.356 179.204C378.921 179.164 379.447 178.981 379.933 178.653C380.419 178.325 380.76 177.92 380.954 177.436L380.803 175.274L379.391 175.372C377.182 175.527 376.123 176.25 376.214 177.543C376.253 178.108 376.473 178.536 376.872 178.828C377.27 179.12 377.765 179.245 378.356 179.204ZM394.332 174.288C394.444 175.893 394.167 177.211 393.502 178.243C392.837 179.275 391.877 179.834 390.624 179.922C389.344 180.012 388.309 179.676 387.519 178.916L387.874 183.991L386.071 184.117L385.051 169.524L386.697 169.409L386.867 170.572C387.537 169.611 388.525 169.085 389.83 168.994C391.097 168.905 392.13 169.313 392.931 170.216C393.738 171.119 394.201 172.421 394.32 174.123L394.332 174.288ZM392.515 174.21C392.432 173.021 392.113 172.101 391.558 171.448C391.004 170.795 390.285 170.499 389.402 170.561C388.31 170.637 387.526 171.178 387.048 172.184L387.4 177.22C388.007 178.144 388.865 178.567 389.976 178.489C390.839 178.429 391.501 178.04 391.96 177.323C392.424 176.598 392.61 175.561 392.515 174.21ZM399.96 174.561L398.645 174.652L398.959 179.143L397.147 179.27L396.41 168.73L398.222 168.603L398.534 173.065L399.713 172.982L402.947 168.272L405.129 168.12L401.314 173.477L406.217 178.636L403.927 178.796L399.96 174.561ZM406.699 173.208C406.626 172.176 406.763 171.233 407.108 170.38C407.459 169.526 407.98 168.85 408.669 168.352C409.365 167.853 410.178 167.571 411.107 167.506C412.542 167.406 413.736 167.821 414.689 168.753C415.648 169.685 416.185 170.975 416.3 172.625L416.309 172.752C416.381 173.778 416.248 174.714 415.909 175.56C415.576 176.399 415.058 177.071 414.356 177.577C413.66 178.083 412.839 178.369 411.89 178.435C410.462 178.535 409.268 178.119 408.308 177.188C407.356 176.256 406.822 174.972 406.708 173.335L406.699 173.208ZM408.526 173.296C408.607 174.465 408.943 175.385 409.531 176.055C410.126 176.724 410.878 177.028 411.787 176.964C412.703 176.9 413.406 176.492 413.895 175.74C414.383 174.981 414.583 173.956 414.492 172.663C414.411 171.507 414.07 170.591 413.468 169.916C412.872 169.233 412.119 168.923 411.21 168.987C410.32 169.049 409.627 169.453 409.131 170.199C408.635 170.945 408.433 171.977 408.526 173.296ZM419.095 177.735L418.358 167.195L422.469 166.907C423.872 166.809 424.964 166.981 425.746 167.422C426.533 167.857 426.96 168.548 427.026 169.496C427.06 169.983 426.945 170.435 426.681 170.852C426.416 171.262 426.005 171.591 425.448 171.838C426.095 171.943 426.625 172.2 427.038 172.608C427.458 173.016 427.69 173.522 427.732 174.126C427.8 175.094 427.494 175.859 426.816 176.422C426.144 176.985 425.158 177.311 423.859 177.402L419.095 177.735ZM420.574 172.982L420.796 176.158L423.777 175.949C424.531 175.897 425.083 175.718 425.433 175.413C425.79 175.107 425.951 174.701 425.916 174.194C425.842 173.142 425.033 172.67 423.487 172.778L420.574 172.982ZM420.473 171.54L422.802 171.377C424.49 171.259 425.3 170.707 425.231 169.72C425.162 168.732 424.327 168.278 422.727 168.358L420.263 168.53L420.473 171.54ZM434.466 175.378C435.109 175.333 435.658 175.099 436.111 174.676C436.564 174.252 436.797 173.747 436.808 173.159L438.512 173.039C438.522 173.646 438.355 174.235 438.01 174.807C437.664 175.38 437.182 175.851 436.562 176.22C435.948 176.59 435.284 176.799 434.569 176.849C433.134 176.95 431.958 176.552 431.04 175.657C430.129 174.755 429.615 173.472 429.498 171.81L429.477 171.508C429.406 170.482 429.53 169.556 429.851 168.731C430.172 167.906 430.667 167.248 431.338 166.757C432.015 166.266 432.834 165.987 433.795 165.919C434.977 165.837 435.983 166.122 436.812 166.776C437.647 167.429 438.13 168.318 438.261 169.445L436.556 169.564C436.457 168.886 436.158 168.345 435.66 167.943C435.168 167.533 434.581 167.353 433.899 167.4C432.983 167.464 432.295 167.845 431.835 168.543C431.381 169.234 431.197 170.203 431.284 171.45L431.308 171.791C431.393 173.005 431.709 173.923 432.254 174.544C432.8 175.165 433.538 175.443 434.466 175.378ZM443.74 171.499L442.425 171.591L442.739 176.082L440.927 176.209L440.19 165.668L442.002 165.541L442.314 170.003L443.493 169.921L446.727 165.211L448.909 165.058L445.093 170.416L449.997 175.575L447.707 175.735L443.74 171.499ZM457.628 164.449L459.43 164.323L460.167 174.863L458.365 174.989L457.827 167.303L453.504 175.329L451.701 175.455L450.964 164.915L452.767 164.789L453.305 172.485L457.628 164.449ZM469.143 163.644L470.945 163.518L471.682 174.058L469.88 174.184L469.342 166.498L465.018 174.524L463.216 174.65L462.479 164.11L464.281 163.983L464.82 171.68L469.143 163.644ZM469.361 159.771C469.416 160.557 469.191 161.209 468.686 161.727C468.186 162.239 467.501 162.525 466.631 162.586C465.761 162.647 465.039 162.456 464.467 162.013C463.894 161.57 463.58 160.959 463.526 160.179L464.997 160.076C465.029 160.531 465.177 160.88 465.442 161.122C465.707 161.358 466.076 161.46 466.55 161.426C467.005 161.395 467.35 161.243 467.585 160.972C467.827 160.701 467.932 160.335 467.9 159.873L469.361 159.771Z" fill="white"/>
</svg>
